<?xml version="1.0" encoding="iso-8859-1"?>
<!-- Uploaded to: SVG Repo, www.svgrepo.com, Generator: SVG Repo Mixer Tools -->
<svg height="800px" width="800px" version="1.1" id="Capa_1" xmlns="http://www.w3.org/2000/svg" xmlns:xlink="http://www.w3.org/1999/xlink" 
	 viewBox="0 0 450.546 450.546" xml:space="preserve">
<g>
	<g>
		<path style="fill:#010002;" d="M238.74,140.177c6.396,0,12.393,2.488,16.892,6.999l65.045,65.063
			c2.166,2.112,3.974,4.821,5.185,7.781c1.199,2.936,1.808,5.997,1.808,9.093c0,3.055-0.591,6.068-1.742,8.956
			c-1.331,3.186-3.085,5.812-5.4,8.079l-64.914,64.92c-9.028,9.004-24.679,9.01-33.731,0.042c-9.308-9.344-9.32-24.494-0.06-33.796
			l24.333-24.327H23.879C10.711,252.986,0,242.276,0,229.107c0-13.163,10.711-23.867,23.879-23.867h222.272l-24.303-24.297
			c-9.261-9.326-9.267-24.47-0.03-33.749C226.377,142.659,232.374,140.177,238.74,140.177z"/>
	</g>
	<g>
		<polygon style="fill:#010002;" points="450.546,387.927 125.239,387.927 125.239,258.726 137.172,258.726 137.172,375.993 
			438.613,375.993 438.613,74.553 137.172,74.553 137.172,199.046 125.239,199.046 125.239,62.619 450.546,62.619 		"/>
	</g>
</g>
</svg>